<?xml version="1.0" encoding="utf-8"?>
<!-- Generator: Adobe Illustrator 18.0.0, SVG Export Plug-In . SVG Version: 6.00 Build 0)  -->
<!DOCTYPE svg PUBLIC "-//W3C//DTD SVG 1.1//EN" "http://www.w3.org/Graphics/SVG/1.1/DTD/svg11.dtd">
<svg version="1.1" id="Layer_1" xmlns="http://www.w3.org/2000/svg" xmlns:xlink="http://www.w3.org/1999/xlink" x="0px" y="0px"
	 viewBox="0 199.5 368.5 56" enable-background="new 0 199.5 368.5 56" xml:space="preserve">
<g>
	<path d="M33.7,249.3L11,205.7h15.5l16.1,32l15.1-32h14.2l-21.1,43.6C50.7,249.3,33.7,249.3,33.7,249.3z"/>
	<path d="M107.5,241.4H81.1l-3.9,8H63.3l22-43.6H103l23.3,43.6h-14.7L107.5,241.4z M94.1,215.2L86,231.5h16.5L94.1,215.2z"/>
	<path d="M137.7,216.1h-18.7v-10.3h51.3v10.3h-18.8v33.3h-13.8L137.7,216.1L137.7,216.1z"/>
	<path d="M175.4,249.3v-43.6h13.6v18.2l22.3-18.2h17.3l-25.1,19.9l26.2,23.7h-17.8l-23-20.6v20.6
		C189.1,249.3,175.4,249.3,175.4,249.3z"/>
	<path d="M273.2,241.4h-26.4l-3.9,8H229l22-43.6h17.7l23.3,43.6h-14.7L273.2,241.4z M259.7,215.2l-8.1,16.3h16.5L259.7,215.2z"/>
	<path d="M308.3,205.8v32.7h30.3v10.8h-43.9v-43.6C294.6,205.8,308.3,205.8,308.3,205.8z"/>
	<path d="M357.5,249.3h-13.6v-43.6h13.6V249.3z"/>
</g>
</svg>
